HIERARCHY
ROOT mixamorig:Hips
{
	OFFSET 0.000000 35.069874 -0.029489
	CHANNELS 6 Xposition Yposition Zposition Xrotation Yrotation Zrotation
	JOINT mixamorig:Spine
	{
		OFFSET 0.000000 6.876060 0.125662
		CHANNELS 3 Xrotation Yrotation Zrotation
		JOINT mixamorig:Spine1
		{
			OFFSET 0.000000 8.022060 0.146603
			CHANNELS 3 Xrotation Yrotation Zrotation
			JOINT mixamorig:Spine2
			{
				OFFSET 0.000000 9.168079 0.167547
				CHANNELS 3 Xrotation Yrotation Zrotation
				JOINT mixamorig:Neck
				{
					OFFSET 0.000000 10.314075 0.188489
					CHANNELS 3 Xrotation Yrotation Zrotation
					JOINT mixamorig:Head
					{
						OFFSET 0.000000 7.643753 -2.377445
						CHANNELS 3 Xrotation Yrotation Zrotation
						JOINT mixamorig:HeadTop_End
						{
							OFFSET 0.000000 43.788605 -13.619637
							CHANNELS 3 Xrotation Yrotation Zrotation
							End Site
							{
								OFFSET 0.000000 45.857788 0.000000
							}
						}
					}
				}
				JOINT mixamorig:LeftShoulder
				{
					OFFSET 4.392187 8.825001 0.174995
					CHANNELS 3 Xrotation Yrotation Zrotation
					JOINT mixamorig:LeftArm
					{
						OFFSET 8.774866 -2.970879 -0.026997
						CHANNELS 3 Xrotation Yrotation Zrotation
						JOINT mixamorig:LeftForeArm
						{
							OFFSET 8.450586 -0.797432 -0.648343
							CHANNELS 3 Xrotation Yrotation Zrotation
							JOINT mixamorig:LeftHand
							{
								OFFSET 18.458662 0.962311 0.193148
								CHANNELS 3 Xrotation Yrotation Zrotation
								JOINT mixamorig:LeftHandThumb1
								{
									OFFSET 2.379990 -1.333382 2.680594
									CHANNELS 3 Xrotation Yrotation Zrotation
									JOINT mixamorig:LeftHandThumb2
									{
										OFFSET 1.903984 -1.066746 2.144473
										CHANNELS 3 Xrotation Yrotation Zrotation
										JOINT mixamorig:LeftHandThumb3
										{
											OFFSET 0.966393 -1.489639 2.964555
											CHANNELS 3 Xrotation Yrotation Zrotation
											JOINT mixamorig:LeftHandThumb4
											{
												OFFSET 1.205181 -0.823021 1.625701
												CHANNELS 3 Xrotation Yrotation Zrotation
												End Site
												{
													OFFSET 1.050617 -0.818157 1.731923
												}
											}
										}
									}
								}
								JOINT mixamorig:LeftHandIndex1
								{
									OFFSET 7.830624 -0.787468 2.563931
									CHANNELS 3 Xrotation Yrotation Zrotation
									JOINT mixamorig:LeftHandIndex2
									{
										OFFSET 3.312897 -0.052605 1.515312
										CHANNELS 3 Xrotation Yrotation Zrotation
										JOINT mixamorig:LeftHandIndex3
										{
											OFFSET 3.460667 -0.207008 1.581951
											CHANNELS 3 Xrotation Yrotation Zrotation
											JOINT mixamorig:LeftHandIndex4
											{
												OFFSET 2.183182 0.110458 0.999585
												CHANNELS 3 Xrotation Yrotation Zrotation
												End Site
												{
													OFFSET 2.183868 0.110451 0.998074
												}
											}
										}
									}
								}
								JOINT mixamorig:LeftHandMiddle1
								{
									OFFSET 8.556145 -0.261200 0.258753
									CHANNELS 3 Xrotation Yrotation Zrotation
									JOINT mixamorig:LeftHandMiddle2
									{
										OFFSET 3.828903 -0.489014 -0.111505
										CHANNELS 3 Xrotation Yrotation Zrotation
										JOINT mixamorig:LeftHandMiddle3
										{
											OFFSET 3.696209 -0.166595 -0.107596
											CHANNELS 3 Xrotation Yrotation Zrotation
											JOINT mixamorig:LeftHandMiddle4
											{
												OFFSET 2.259281 0.534500 -0.065675
												CHANNELS 3 Xrotation Yrotation Zrotation
												End Site
												{
													OFFSET 2.259735 0.534134 -0.051267
												}
											}
										}
									}
								}
								JOINT mixamorig:LeftHandRing1
								{
									OFFSET 8.509293 -0.556679 -3.044941
									CHANNELS 3 Xrotation Yrotation Zrotation
									JOINT mixamorig:LeftHandRing2
									{
										OFFSET 2.995171 -0.303261 -0.843591
										CHANNELS 3 Xrotation Yrotation Zrotation
										JOINT mixamorig:LeftHandRing3
										{
											OFFSET 2.968273 -0.101997 -0.834287
											CHANNELS 3 Xrotation Yrotation Zrotation
											JOINT mixamorig:LeftHandRing4
											{
												OFFSET 1.521358 -0.461468 -0.418735
												CHANNELS 3 Xrotation Yrotation Zrotation
												End Site
												{
													OFFSET 1.516514 -0.460747 -0.436712
												}
											}
										}
									}
								}
							}
						}
					}
				}
				JOINT mixamorig:RightShoulder
				{
					OFFSET -4.392150 8.825024 0.141388
					CHANNELS 3 Xrotation Yrotation Zrotation
					JOINT mixamorig:RightArm
					{
						OFFSET -8.774886 -2.970947 -0.094209
						CHANNELS 3 Xrotation Yrotation Zrotation
						JOINT mixamorig:RightForeArm
						{
							OFFSET -8.450586 -0.797386 -0.330665
							CHANNELS 3 Xrotation Yrotation Zrotation
							JOINT mixamorig:RightHand
							{
								OFFSET -18.458664 0.962341 0.025780
								CHANNELS 3 Xrotation Yrotation Zrotation
								JOINT mixamorig:RightHandThumb1
								{
									OFFSET -2.390282 -1.240040 2.604684
									CHANNELS 3 Xrotation Yrotation Zrotation
									JOINT mixamorig:RightHandThumb2
									{
										OFFSET -1.912228 -0.992111 2.083740
										CHANNELS 3 Xrotation Yrotation Zrotation
										JOINT mixamorig:RightHandThumb3
										{
											OFFSET -0.876358 -1.555370 2.930126
											CHANNELS 3 Xrotation Yrotation Zrotation
											JOINT mixamorig:RightHandThumb4
											{
												OFFSET -1.227077 -0.755932 1.835223
												CHANNELS 3 Xrotation Yrotation Zrotation
												End Site
												{
													OFFSET -1.124962 -0.750702 1.901603
												}
											}
										}
									}
								}
								JOINT mixamorig:RightHandIndex1
								{
									OFFSET -8.716801 -0.633743 3.098187
									CHANNELS 3 Xrotation Yrotation Zrotation
									JOINT mixamorig:RightHandIndex2
									{
										OFFSET -3.319706 -0.240585 1.198087
										CHANNELS 3 Xrotation Yrotation Zrotation
										JOINT mixamorig:RightHandIndex3
										{
											OFFSET -3.153255 -0.154724 1.138827
											CHANNELS 3 Xrotation Yrotation Zrotation
											JOINT mixamorig:RightHandIndex4
											{
												OFFSET -1.818684 -0.003197 0.655154
												CHANNELS 3 Xrotation Yrotation Zrotation
												End Site
												{
													OFFSET -1.818668 -0.003197 0.655188
												}
											}
										}
									}
								}
								JOINT mixamorig:RightHandMiddle1
								{
									OFFSET -8.158691 -0.528496 0.196552
									CHANNELS 3 Xrotation Yrotation Zrotation
									JOINT mixamorig:RightHandMiddle2
									{
										OFFSET -3.890194 -0.261169 -0.136423
										CHANNELS 3 Xrotation Yrotation Zrotation
										JOINT mixamorig:RightHandMiddle3
										{
											OFFSET -3.903057 -0.179909 -0.137173
											CHANNELS 3 Xrotation Yrotation Zrotation
											JOINT mixamorig:RightHandMiddle4
											{
												OFFSET -2.366261 0.198380 -0.083987
												CHANNELS 3 Xrotation Yrotation Zrotation
												End Site
												{
													OFFSET -2.366409 0.198326 -0.079799
												}
											}
										}
									}
								}
								JOINT mixamorig:RightHandRing1
								{
									OFFSET -7.616104 -0.395126 -2.681268
									CHANNELS 3 Xrotation Yrotation Zrotation
									JOINT mixamorig:RightHandRing2
									{
										OFFSET -3.235790 -0.462120 -1.101476
										CHANNELS 3 Xrotation Yrotation Zrotation
										JOINT mixamorig:RightHandRing3
										{
											OFFSET -3.179264 -0.138618 -1.084847
											CHANNELS 3 Xrotation Yrotation Zrotation
											JOINT mixamorig:RightHandRing4
											{
												OFFSET -1.963291 -0.101624 -0.668250
												CHANNELS 3 Xrotation Yrotation Zrotation
												End Site
												{
													OFFSET -1.963745 -0.101669 -0.666919
												}
											}
										}
									}
								}
							}
						}
					}
				}
			}
		}
	}
	JOINT mixamorig:LeftUpLeg
	{
		OFFSET 10.205382 -3.823519 0.155145
		CHANNELS 3 Xrotation Yrotation Zrotation
		JOINT mixamorig:LeftLeg
		{
			OFFSET 0.283732 -12.998343 0.567794
			CHANNELS 3 Xrotation Yrotation Zrotation
			JOINT mixamorig:LeftFoot
			{
				OFFSET -1.058953 -10.688869 -2.184322
				CHANNELS 3 Xrotation Yrotation Zrotation
				JOINT mixamorig:LeftToeBase
				{
					OFFSET 0.108145 -7.191069 7.560211
					CHANNELS 3 Xrotation Yrotation Zrotation
					JOINT mixamorig:LeftToe_End
					{
						OFFSET 0.070226 0.081726 4.490266
						CHANNELS 3 Xrotation Yrotation Zrotation
						End Site
						{
							OFFSET 0.070226 0.081726 4.490267
						}
					}
				}
			}
		}
	}
	JOINT mixamorig:RightUpLeg
	{
		OFFSET -10.205383 -3.823513 0.005508
		CHANNELS 3 Xrotation Yrotation Zrotation
		JOINT mixamorig:RightLeg
		{
			OFFSET -0.283728 -12.998341 0.610627
			CHANNELS 3 Xrotation Yrotation Zrotation
			JOINT mixamorig:RightFoot
			{
				OFFSET 1.058956 -10.688892 -1.945833
				CHANNELS 3 Xrotation Yrotation Zrotation
				JOINT mixamorig:RightToeBase
				{
					OFFSET -0.108150 -7.191040 7.372945
					CHANNELS 3 Xrotation Yrotation Zrotation
					JOINT mixamorig:RightToe_End
					{
						OFFSET -0.070229 0.081738 4.479398
						CHANNELS 3 Xrotation Yrotation Zrotation
						End Site
						{
							OFFSET -0.070229 0.081738 4.479399
						}
					}
				}
			}
		}
	}
}
MOTION
Frames: 4
Frame Time: 0.016667
0.228414 33.644260 -0.370766 -3.895741 -6.358918 -2.126017 7.968780 2.154565 2.089680 -0.160745 0.299257 -1.144697 -0.155811 0.284065 -1.149824 -0.329486 0.360289 0.668018 3.521242 2.676856 0.478100 0.000000 0.000000 0.000000 0.311673 -7.670504 1.961375 41.453671 -40.655161 -48.344765 -5.816254 -45.611897 -10.737750 -8.816877 0.145534 3.589872 28.993484 22.979062 7.485125 -12.343281 38.867349 2.657642 -2.289493 -13.278992 -6.237935 0.000002 0.000002 0.000001 15.225009 23.359300 -33.907033 1.775106 0.889525 -3.752689 5.127253 0.505328 -11.085392 -0.000002 -0.000002 0.000001 0.534749 1.639639 -25.956894 -0.034536 1.940434 -16.423897 -0.510180 1.808020 -25.940927 0.000000 0.000001 0.000002 -7.254732 -9.359120 -31.457242 -4.672213 3.809290 -19.303511 0.327329 2.932257 -0.644571 -0.000000 0.000001 -0.000004 1.779491 19.714136 1.663055 48.202861 28.563156 43.720109 -13.321068 67.392985 17.230938 -16.254879 -4.671258 -1.246325 7.998908 -15.553985 -4.526072 11.495851 -48.840483 -2.863368 1.603842 14.152296 7.697695 0.000002 -0.000002 -0.000003 12.667037 -19.254264 31.522385 6.909598 -1.231516 18.144505 6.719881 -1.023871 17.966515 -0.000001 0.000001 0.000001 -0.034328 -0.358243 24.049533 -0.015901 -2.995102 20.456647 -0.330147 -2.773476 24.727785 0.000001 0.000000 -0.000003 -7.406017 14.579674 20.863216 -6.757248 -5.015288 23.247601 -4.891117 -4.069982 16.254836 0.000002 -0.000001 0.000001 1.898704 2.213716 12.634288 24.763764 5.500924 -9.325489 -19.425579 22.848752 -3.558336 -0.003775 -0.000008 0.000017 -0.000000 -0.000002 0.000000 -4.843906 2.531445 -4.704951 25.272364 -6.867261 1.445088 -14.581074 -8.231859 5.557911 -0.027988 -0.000002 0.000007 -0.000000 -0.000001 0.000000 
0.229530 33.634979 -0.327135 -3.766420 -6.268326 -2.121137 7.699735 2.077200 2.064964 -0.099584 0.287704 -1.099779 -0.094815 0.273134 -1.104310 -0.472985 0.370653 0.694947 3.290755 2.837016 0.538676 0.000000 0.000000 -0.000000 0.309835 -7.643446 1.666629 40.434816 -39.643145 -48.901484 -5.712669 -45.074409 -10.663533 -9.836990 0.564946 3.692594 28.993477 22.979056 7.485162 -12.343285 38.867349 2.657640 -2.289497 -13.278996 -6.237935 0.000003 -0.000001 -0.000000 15.066841 23.395433 -33.538216 1.848424 0.910079 -3.907536 5.200420 0.516796 -11.240737 -0.000001 -0.000000 0.000002 0.524380 1.615175 -25.793562 -0.027362 1.985685 -16.701129 -0.507037 1.860850 -26.246341 0.000000 0.000002 -0.000000 -7.262286 -9.341936 -31.516699 -4.758050 3.925547 -19.733028 0.225620 3.014994 -1.102290 -0.000001 0.000002 -0.000004 1.797979 19.667190 1.685229 47.241581 28.041695 44.048290 -13.000862 66.897830 16.935457 -17.256415 -4.463947 -2.240711 7.998923 -15.554002 -4.526065 11.495850 -48.840483 -2.863370 1.603841 14.152300 7.697692 -0.000002 -0.000002 -0.000001 12.467999 -19.291005 30.972043 6.890603 -1.230772 18.095661 6.710523 -1.023409 17.942058 -0.000002 -0.000001 -0.000004 -0.046444 -0.312161 23.743449 -0.015744 -2.995954 20.462098 -0.329501 -2.778621 24.760199 0.000000 0.000002 -0.000003 -7.369367 14.625937 20.695506 -6.791646 -5.062226 23.395034 -4.922177 -4.103234 16.370929 0.000001 -0.000004 0.000002 1.814303 2.686728 12.428316 24.734639 5.501528 -8.585567 -19.312317 22.900168 -4.355024 -0.003664 -0.000011 0.000017 0.000000 0.000005 0.000000 -5.041886 1.954844 -4.672857 25.627286 -6.874540 1.276889 -14.909827 -7.761856 5.364466 -0.208772 -0.000012 0.000009 -0.000000 0.000001 -0.000000 
0.230737 33.624264 -0.280573 -3.621714 -6.119342 -2.074265 7.404876 1.973175 2.036536 -0.034164 0.272660 -1.059707 -0.029643 0.258724 -1.063592 -0.615165 0.378879 0.718460 3.082978 2.987700 0.596497 -0.000000 -0.000000 0.000000 0.307508 -7.614723 1.375833 39.445541 -38.677555 -49.383968 -5.615455 -44.560591 -10.594487 -10.429742 1.015267 3.842898 28.993487 22.979050 7.485127 -12.343285 38.867345 2.657642 -2.289499 -13.278990 -6.237937 0.000000 0.000000 0.000000 14.894059 23.433790 -33.135771 1.899306 0.924226 -4.014945 5.251189 0.524643 -11.348509 -0.000001 -0.000000 0.000001 0.511805 1.585219 -25.593984 -0.021484 2.021644 -16.921536 -0.504281 1.903785 -26.494418 0.000001 0.000001 0.000001 -7.262883 -9.340554 -31.521487 -4.830326 4.024817 -20.097867 0.138979 3.086560 -1.494474 0.000003 0.000008 0.000001 1.816150 19.618801 1.691367 46.297703 27.553343 44.324601 -12.701628 66.415564 16.660310 -18.011518 -4.335055 -3.194061 7.998933 -15.553989 -4.526070 11.495847 -48.840483 -2.863368 1.603839 14.152296 7.697692 0.000002 -0.000002 -0.000002 12.263675 -19.326741 30.408067 6.856880 -1.229427 18.008943 6.693915 -1.022589 17.898646 -0.000001 0.000008 -0.000000 -0.059198 -0.262631 23.415031 -0.016770 -2.990239 20.425049 -0.329391 -2.779477 24.765535 -0.000001 -0.000002 0.000000 -7.324671 14.681999 20.491717 -6.814886 -5.094105 23.494939 -4.945262 -4.128014 16.457370 -0.000000 -0.000008 0.000001 1.723893 3.101552 12.210447 24.612112 5.494484 -7.891668 -19.135866 22.822051 -5.141656 -0.003426 -0.000013 0.000011 0.000000 0.000000 -0.000000 -5.265847 1.319888 -4.691102 26.043810 -6.535429 1.159748 -15.311541 -7.615961 5.026549 -0.406094 -0.000010 0.000011 -0.000000 -0.000001 -0.000000 
0.233303 33.610588 -0.233248 -3.485799 -5.938529 -2.004980 7.102783 1.843875 2.003613 0.032605 0.254361 -1.025851 0.036794 0.241035 -1.029074 -0.756160 0.384979 0.738839 2.896232 3.129299 0.635409 0.000000 0.000000 0.000000 0.304834 -7.583613 1.091847 38.487552 -37.755694 -49.797188 -5.525231 -44.075378 -10.530969 -10.542063 1.460838 4.037011 28.993470 22.979063 7.485141 -12.343285 38.867345 2.657637 -2.289496 -13.278984 -6.237933 0.000002 0.000002 0.000001 14.726270 23.469886 -32.745546 1.931159 0.933032 -4.082100 5.282933 0.529488 -11.415901 -0.000002 0.000002 -0.000001 0.499105 1.554644 -25.390422 -0.017026 2.048346 -17.085387 -0.502073 1.936384 -26.683003 0.000000 -0.000001 0.000001 -7.259100 -9.349211 -31.491530 -4.887235 4.103971 -20.387445 0.069986 3.144211 -1.808243 0.000002 0.000003 -0.000002 1.833845 19.568992 1.681654 45.367339 27.095396 44.557907 -12.423079 65.948796 16.405090 -18.496229 -4.288409 -4.083911 7.998917 -15.553983 -4.526083 11.495847 -48.840483 -2.863370 1.603840 14.152295 7.697693 -0.000004 -0.000002 -0.000004 12.069375 -19.358921 29.872584 6.814223 -1.227651 17.899238 6.672956 -1.021589 17.843762 0.000000 0.000002 -0.000000 -0.071427 -0.213912 23.092473 -0.018598 -2.979899 20.357760 -0.329715 -2.776935 24.749604 -0.000001 -0.000002 0.000000 -7.276798 14.741536 20.274517 -6.827893 -5.111974 23.550907 -4.960543 -4.144484 16.514690 -0.000001 -0.000001 0.000001 1.638171 3.453702 11.996798 24.467879 5.501136 -7.257852 -18.946228 22.639623 -5.900111 -0.003170 -0.000004 0.000018 0.000000 -0.000001 0.000000 -5.491997 0.679923 -4.757363 26.535637 -6.138418 1.097667 -15.776511 -7.542610 4.635860 -0.616491 -0.000006 0.000012 -0.000000 -0.000001 0.000000 
